<svg xmlns="http://www.w3.org/2000/svg" xmlns:xlink="http://www.w3.org/1999/xlink" width="40" zoomAndPan="magnify" viewBox="0 0 30 30.000001" height="40" preserveAspectRatio="xMidYMid meet" version="1.0"><defs><clipPath id="e414d902b3"><path d="M 1 5.152344 L 29 5.152344 L 29 24 L 1 24 Z M 1 5.152344 " clip-rule="nonzero"/></clipPath></defs><g clip-path="url(#e414d902b3)"><path fill="#ffffff" d="M 5.242188 14.035156 L 4.097656 11.644531 L 13.039062 11.644531 L 13.039062 23.851562 L 10.503906 23.851562 L 10.503906 14.035156 Z M 28.265625 10.875 C 27.792969 9.761719 27.121094 8.761719 26.261719 7.902344 C 25.402344 7.042969 24.402344 6.367188 23.289062 5.898438 C 22.136719 5.410156 20.910156 5.164062 19.648438 5.164062 L 1 5.164062 L 2.167969 7.605469 L 23.882812 7.605469 L 22.257812 11.652344 L 16.191406 11.652344 L 16.191406 23.867188 L 19.648438 23.867188 C 20.910156 23.867188 22.136719 23.617188 23.289062 23.128906 C 24.402344 22.660156 25.402344 21.984375 26.261719 21.125 C 27.121094 20.269531 27.792969 19.269531 28.265625 18.15625 C 28.753906 17 29 15.777344 29 14.515625 C 29 13.253906 28.753906 12.027344 28.265625 10.875 Z M 28.265625 10.875 " fill-opacity="1" fill-rule="nonzero"/></g></svg>